# xmcd
#
# Track frame offsets:
#	150
#	7712
#	18795
#	32570
#	43125
#	51360
#	63060
#	69945
#	80082
#	89402
#	101415
#	112282
#	122990
#	135937
#	142275
#	151365
#
# Disc length: 2106 seconds
# Revision: 0
# Processed by: cddbd v1.5.2PL0 Copyright (c) Steve Scherf et al.
# Submitted via: dBpowerAMP V12.0
#
DISCID=d2083810
DTITLE=The Dillards - A Long Time Ago
DYEAR=1999
DGENRE=Country
TTITLE0=John Hardy
TTITLE1=Old Man at the Mill
TTITLE2=Green Corn
TTITLE3=Katie Cline
TTITLE4=Banjo in the Hollow
TTITLE5=Old Blue
TTITLE6=Buckin' Mule
TTITLE7=Hard, Ain't It Hard
TTITLE8=Travelin' Dobro Blues
TTITLE9=Groundhog
TTITLE10=Cripple Creek
TTITLE11=Little Maggie
TTITLE12=Cannonball Blues
TTITLE13=Watermelon on the Vine
TTITLE14=Whitehouse Blues
TTITLE15=Cumberland Gap
EXTD=
EXTT0=
EXTT1=
EXTT2=
EXTT3=
EXTT4=
EXTT5=
EXTT6=
EXTT7=
EXTT8=
EXTT9=
EXTT10=
EXTT11=
EXTT12=
EXTT13=
EXTT14=
EXTT15=
PLAYORDER=
